Coordinates
version=1
nRows=4
nColumns=107
inDegrees=yes

Units are S.I. units (second, meters, Newtons, ...)
If the header above contains a line with 'inDegrees', this indicates whether rotational values are in degrees (yes) or radians (no).

endheader
time	sternoclavicular_r2	sternoclavicular_r3	unrotscap_r3	unrotscap_r2	acromioclavicular_r2	acromioclavicular_r3	acromioclavicular_r1	unrothum_r1	unrothum_r3	unrothum_r2	elv_angle	shoulder_elv	shoulder1_r2	shoulder_rot	elbow_flexion	pro_sup	deviation	flexion	proximal_distal_r1	proximal_distal_r3	cmc_flexion	cmc_abduction	mp_flexion	ip_flexion	mcp2_flexion	mcp2_abduction	pm2_flexion	md2_flexion	mcp3_flexion	mcp3_abduction	pm3_flexion	md3_flexion	mcp4_flexion	mcp4_abduction	pm4_flexion	md4_flexion	mcp5_flexion	mcp5_abduction	pm5_flexion	md5_flexion	bicpt_tx	bicpt_ty	bicpt_tz	bicpt2_tx	bicpt2_ty	bicpt2_tz	ptpt_tx	ptpt_ty	ptpt_tz	FCUpt_tx	FCUpt_ty	FCUpt_tz	EDCpt_tx	EDCpt_ty	EDCpt_tz	APLpt_tx	APLpt_ty	APLpt_tz	FPLpt_tx	FPLpt_ty	FPLpt_tz	FPLpt2_tx	FPLpt2_ty	FPLpt2_tz	PEC1pt2_tx	PEC1pt2_ty	PEC1pt2_tz	PEC1pt3_tx	PEC1pt3_ty	PEC1pt3_tz	PEC2pt2_tx	PEC2pt2_ty	PEC2pt2_tz	PEC2pt3_tx	PEC2pt3_ty	PEC2pt3_tz	PEC3pt2_tx	PEC3pt2_ty	PEC3pt2_tz	PEC3pt3_tx	PEC3pt3_ty	PEC3pt3_tz	DELT2pt2a_tx	DELT2pt2a_ty	DELT2pt2a_tz	DELT2pt2_tx	DELT2pt2_ty	DELT2pt2_tz	LAT1pt2_tx	LAT1pt2_ty	LAT1pt2_tz	LAT1pt3_tx	LAT1pt3_ty	LAT1pt3_tz	LAT2pt2_tx	LAT2pt2_ty	LAT2pt2_tz	LAT2pt3_tx	LAT2pt3_ty	LAT2pt3_tz	LAT3pt2_tx	LAT3pt2_ty	LAT3pt2_tz	LAT3pt3_tx	LAT3pt3_ty	LAT3pt3_tz
      1.46666667	     -0.32331053	      0.13693908	     -0.13693908	      0.32331053	     -0.06546381	      0.52905546	      0.23780679	     -0.23780679	     -0.52905546	      0.06546381	     99.27230527	     76.54664295	     -1.73262858	    -20.57548322	     27.38077025	      7.68154764	     -0.04650268	     -0.79106375	     -0.06488070	     -0.39553187	     33.45297159	    -22.51663326	      7.51140028	      6.83517104	    -10.20927296	      2.65936553	     19.49215690	    -28.35683464	    -11.63214774	     -2.29098789	     10.52818162	     12.04135958	    -15.55275565	     -1.62768131	      2.78233266	     20.03025541	    -24.82182696	     -8.28181752	      3.85596547	      5.02021379	      0.00080567	     -0.03073825	     -0.00480549	      0.01531927	     -0.01763812	     -0.01018784	      0.00698242	     -0.06526701	     -0.00066879	      0.00468764	     -0.18401907	      0.00023629	     -0.00092178	      0.00022675	      0.00009539	      0.00028531	      0.00011412	      0.00057061	      0.00036519	      0.00109558	      0.00061626	     -0.00001203	     -0.00021460	     -0.00025752	      0.00250903	      0.00880287	      0.00612374	     -0.00820751	      0.01981709	     -0.01879647	      0.00250903	      0.00880287	      0.00612374	      0.00055284	      0.01837121	     -0.00965339	      0.00396229	      0.00489516	      0.01600260	      0.00000000	      0.00783668	      0.00000000	     -0.00718689	     -0.03321277	     -0.00646202	      0.01410612	     -0.00044968	     -0.00350056	     -0.00089304	      0.01496913	     -0.00612374	      0.00246651	      0.02160318	     -0.01786090	     -0.00599616	      0.01297041	     -0.00548585	     -0.01250263	      0.02738671	     -0.03066121	     -0.02347432	      0.01450135	     -0.00735699	     -0.01556450	      0.03163931	     -0.03831588
      1.50000000	     -0.32286960	      0.13675232	     -0.13675232	      0.32286960	     -0.06537453	      0.52833392	      0.23748246	     -0.23748246	     -0.52833392	      0.06537453	     99.39031135	     76.44224680	     -1.73468818	    -21.27048136	     27.46118449	      8.87201365	     -0.03318205	     -0.75596006	     -0.04593323	     -0.37798003	     33.69003477	    -22.47494728	      7.38288686	      6.88567812	    -10.39499240	      3.03540270	     19.79567168	    -27.94010799	    -11.36150765	     -2.14271018	     10.55654490	     11.83945649	    -15.02311779	     -1.40003776	      2.21713244	     19.38130676	    -24.62567718	     -8.29820090	      3.78535243	      5.01287279	      0.00080833	     -0.03074747	     -0.00480698	      0.01540791	     -0.01765997	     -0.01011372	      0.00689446	     -0.06532388	     -0.00076469	      0.00479584	     -0.18400504	      0.00019940	     -0.00106464	      0.00026352	      0.00010732	      0.00029488	      0.00011795	      0.00058976	      0.00037744	      0.00113233	      0.00063694	     -0.00001218	     -0.00021170	     -0.00025404	      0.00250561	      0.00879087	      0.00611538	     -0.00819631	      0.01979007	     -0.01877083	      0.00250561	      0.00879087	      0.00611538	      0.00055208	      0.01834615	     -0.00964022	      0.00395835	      0.00488849	      0.01599303	      0.00000000	      0.00781517	      0.00000000	     -0.00717708	     -0.03316747	     -0.00644416	      0.01449860	     -0.00047127	     -0.00375184	     -0.00089183	      0.01494872	     -0.00611538	      0.00246314	      0.02157372	     -0.01783654	     -0.00598798	      0.01295272	     -0.00547837	     -0.01248558	      0.02734936	     -0.03061939	     -0.02344231	      0.01448157	     -0.00734696	     -0.01554327	      0.03159616	     -0.03826362
      1.53333333	     -0.32280668	      0.13672567	     -0.13672567	      0.32280668	     -0.06536179	      0.52823097	      0.23743618	     -0.23743618	     -0.52823097	      0.06536179	     99.39014976	     76.42735112	     -1.73468536	    -21.26832073	     27.45600516	      8.87107696	     -0.03319831	     -0.75593083	     -0.04595687	     -0.37796541	     33.68971122	    -22.47514103	      7.38270744	      6.88557607	    -10.39429982	      3.03501663	     19.79578166	    -27.93998522	    -11.35950847	     -2.14291664	     10.55689848	     11.83960183	    -15.02221908	     -1.40025286	      2.21754378	     19.38144188	    -24.62519926	     -8.29832360	      3.78550024	      5.01286931	      0.00080816	     -0.03074688	     -0.00480688	      0.01540783	     -0.01765856	     -0.01011377	      0.00689453	     -0.06532384	     -0.00076461	      0.00479575	     -0.18400504	      0.00019943	     -0.00106453	      0.00026349	      0.00010730	      0.00029488	      0.00011795	      0.00058975	      0.00037744	      0.00113233	      0.00063693	     -0.00001218	     -0.00021169	     -0.00025403	      0.00250512	      0.00878915	      0.00611419	     -0.00819472	      0.01978621	     -0.01876718	      0.00250512	      0.00878915	      0.00611419	      0.00055198	      0.01834258	     -0.00963835	      0.00395778	      0.00488754	      0.01599166	      0.00000000	      0.00781210	      0.00000000	     -0.00717569	     -0.03316101	     -0.00644162	      0.01449738	     -0.00047121	     -0.00375105	     -0.00089165	      0.01494581	     -0.00611419	      0.00246266	      0.02156952	     -0.01783306	     -0.00598681	      0.01295020	     -0.00547730	     -0.01248314	      0.02734403	     -0.03061343	     -0.02343774	      0.01447875	     -0.00734552	     -0.01554024	      0.03159000	     -0.03825617
      1.56666667	     -0.32170824	      0.13626043	     -0.13626043	      0.32170824	     -0.06513938	      0.52643352	      0.23662824	     -0.23662824	     -0.52643352	      0.06513938	     99.67786483	     76.16728622	     -1.73970693	    -22.72765550	     27.42743686	      9.97122010	     -0.04516283	     -0.76151847	     -0.06296156	     -0.38075923	     33.46096094	    -22.44507066	      7.21626607	      6.65461615	    -10.31205658	      2.78866854	     19.66078983	    -27.54483627	    -11.35775792	     -2.40518828	     10.70337543	     12.02855022	    -15.20881477	     -1.68490493	      2.23801930	     19.86131158	    -24.86173086	     -8.49599298	      3.60202899	      5.01588688	      0.00080721	     -0.03074360	     -0.00480635	      0.01548685	     -0.01765080	     -0.01004350	      0.00681324	     -0.06537640	     -0.00085324	      0.00489613	     -0.18399171	      0.00016629	     -0.00119654	      0.00029786	      0.00011764	      0.00029349	      0.00011740	      0.00058699	      0.00037567	      0.00112702	      0.00063395	     -0.00001204	     -0.00021451	     -0.00025741	      0.00249660	      0.00875925	      0.00609339	     -0.00816683	      0.01971888	     -0.01870332	      0.00249660	      0.00875925	      0.00609339	      0.00055010	      0.01828016	     -0.00960555	      0.00394795	      0.00487091	      0.01596767	      0.00000000	      0.00775865	      0.00000000	     -0.00715127	     -0.03304817	     -0.00639725	      0.01530050	     -0.00051715	     -0.00430260	     -0.00088862	      0.01489495	     -0.00609339	      0.00245428	      0.02149612	     -0.01777238	     -0.00596644	      0.01290613	     -0.00545866	     -0.01244067	      0.02725099	     -0.03050926	     -0.02335799	      0.01442948	     -0.00732053	     -0.01548736	      0.03148250	     -0.03812599
